<svg xmlns="http://www.w3.org/2000/svg" width="20" height="20"><g><title>background</title><rect id="canvas_background" width="22" height="22" x="-1" y="-1" fill="none"/><g id="canvasGrid" width="100%" height="100%" x="0" y="0" display="none"><rect width="100%" height="100%" x="0" y="0" fill="url(#gridpattern)" stroke-width="0"/></g></g><g><title>Layer 1</title><rect id="svg_1" width="20" height="20" x="0" y="0" fill="none" stroke="#fff" stroke-width="1.5"/><g id="svg_48" transform="rotate(-90 5.470890522003175,14.519892692565918)"><line id="svg_21" x1="2.535" x2="8.41" y1="14.585" y2="14.585" fill="none" stroke="#fff" stroke-linecap="null" stroke-linejoin="null" stroke-opacity="null" stroke-width=".7" transform="rotate(-270 5.472714900970458,14.585470199584961)"/><line id="svg_22" x1="4.727" x2="8.184" y1="12.783" y2="12.783" fill="none" stroke="#fff" stroke-linecap="null" stroke-linejoin="null" stroke-opacity="null" stroke-width=".7" transform="rotate(-315 6.455248355865479,12.782735824584961)"/><line id="svg_23" x1="2.757" x2="6.224" y1="12.743" y2="12.743" fill="none" stroke="#fff" stroke-linecap="null" stroke-linejoin="null" stroke-opacity="null" stroke-width=".7" transform="rotate(-225 4.490182399749755,12.742725372314455)"/></g><g id="svg_52" transform="rotate(90 14.56279182434082,14.528783798217775)"><line id="svg_49" x1="11.627" x2="17.502" y1="14.594" y2="14.594" fill="none" stroke="#fff" stroke-linecap="null" stroke-linejoin="null" stroke-opacity="null" stroke-width=".7" transform="rotate(-270 14.564615249633789,14.594361305236816)"/><line id="svg_50" x1="13.819" x2="17.275" y1="12.792" y2="12.792" fill="none" stroke="#fff" stroke-linecap="null" stroke-linejoin="null" stroke-opacity="null" stroke-width=".7" transform="rotate(-315 15.547149658203129,12.791626930236815)"/><line id="svg_51" x1="11.849" x2="15.316" y1="12.752" y2="12.752" fill="none" stroke="#fff" stroke-linecap="null" stroke-linejoin="null" stroke-opacity="null" stroke-width=".7" transform="rotate(-225 13.582084655761719,12.751616477966309)"/></g></g></svg>