<svg xmlns="http://www.w3.org/2000/svg" width="20" height="20"><g><title>background</title><rect id="canvas_background" width="22" height="22" x="-1" y="-1" fill="none"/><g id="canvasGrid" display="none"><rect id="svg_2" width="100%" height="100%" x="0" y="0" fill="url(#gridpattern)" stroke-width="0"/></g></g><g><title>Layer 1</title><path id="svg_14" fill="none" fill-opacity="null" stroke="#fff" stroke-opacity="null" stroke-width=".7" d="m19.64189,11.952607c0,-5.38342 -4.85365,-5.13556 -4.87894,-5.11754"/><path id="svg_15" fill="none" fill-opacity="null" stroke="#fff" stroke-opacity="null" stroke-width=".7" d="m14.98263,7.223947c0,-5.48912 -6.47376,-5.2364 -6.50749,-5.21802"/><path id="svg_16" fill="none" fill-opacity="null" stroke="#fff" stroke-opacity="null" stroke-width=".7" d="m9.71401,2.024077c-6.83615,0 -6.5214,5.01646 -6.49851,5.04259"/><line id="svg_20" x1="13.067" x2="16.773" y1="14.733" y2="14.733" fill="none" fill-opacity="null" stroke="#fff" stroke-linecap="null" stroke-linejoin="null" stroke-opacity="null" stroke-width=".7"/><line id="svg_25" x1="4.882" x2="6.395" y1="14.047" y2="14.047" fill="none" fill-opacity="null" stroke="#fff" stroke-linecap="null" stroke-linejoin="null" stroke-opacity="null" stroke-width=".7"/><path id="svg_30" fill="none" fill-opacity="null" stroke="#fff" stroke-opacity="null" stroke-width=".7" d="m19.62093,11.481767c0,3.41149 -3.20748,3.25442 -3.22419,3.243"/><path id="svg_31" fill="none" fill-opacity="null" stroke="#fff" stroke-opacity="null" stroke-width=".7" d="m4.37638,11.983757c0,-4.9563 -4.46855,-4.72811 -4.49183,-4.71151" transform="rotate(-111.92151641845703 2.1304666996002193,9.625011444091797)"/><path id="svg_32" fill="none" fill-opacity="null" stroke="#fff" stroke-opacity="null" stroke-width=".7" d="m4.6456,14.869757c0,-3.83068 -3.45371,-3.65431 -3.4717,-3.64148" transform="rotate(154.7248077392578 2.909747362136841,13.04670810699463)"/><g id="svg_1"><line id="svg_21" x1="10.002" x2="10.002" y1="8.895" y2="18.553" fill="none" stroke="#fff" stroke-linecap="null" stroke-linejoin="null" stroke-opacity="null" stroke-width=".7"/><line id="svg_22" x1="9.8" x2="12.801" y1="8.33" y2="11.331" fill="none" stroke="#fff" stroke-linecap="null" stroke-linejoin="null" stroke-opacity="null" stroke-width=".7"/><line id="svg_23" x1="10.301" x2="7.291" y1="8.322" y2="11.332" fill="none" stroke="#fff" stroke-linecap="null" stroke-linejoin="null" stroke-opacity="null" stroke-width=".7"/></g></g></svg>